# xmcd
#
# Track frame offsets: 
#        150
#        13309
#        27506
#        44420
#        59004
#        70935
#        80482
#        91698
#        104645
#        122118
#        135376
#        147002
#        160633
#        171706
#        190690
#        203178
#        212971
#        231620
#        248895
#        261885
#        271618
#        287615
#        297298
#        309273
#
# Disc length: 4313 seconds
#
# Revision: 0
# Processed by: cddbd v1.5.2PL0 Copyright (c) Steve Scherf et al.
# Submitted via: ExactAudioCopyFreeDBPlugin 1.0
#
DISCID=6d10d718
DTITLE=Various Artist - Prima Divas 2
DYEAR=2014
DGENRE=Vocal
TTITLE0=Barbara Streisand - Happy Days Are Here Again
TTITLE1=Edith Piaf - La Vie En Rose
TTITLE2=Billie Holiday - Lady Sings the Blues
TTITLE3=June Christy - Fly Me To the Moon
TTITLE4=Cleo Laine - Let's Slip Away
TTITLE5=Dinah Washington - September In the Rain
TTITLE6=Peggy Lee - Till There Was You
TTITLE7=Anita Bryant - Paper Roses
TTITLE8=Lena Horne - Stormy Weather
TTITLE9=Julie London - Cry Me a River
TTITLE10=Patti Page - Old Cape Cod
TTITLE11=Aretha Franklin - God Bless the Child
TTITLE12=Eydie Gorme - Be Careful It's My Heart
TTITLE13=Lee Wiley - A Touch of Blues
TTITLE14=Blossom Dearie - Lover Man
TTITLE15=Nancy Wilson - The More I See You
TTITLE16=Carmen McRae - How Long Has This Been Going On?
TTITLE17=Chris Connor - But Not For Me
TTITLE18=Helen Merrill - Black is the Colour of My True Love's Hair
TTITLE19=Annie Ross - Manhattan
TTITLE20=Ella Fitzgerald - Let's Do It
TTITLE21=Dakota Staton - Summertime
TTITLE22=Rosemary Clooney - Sway
TTITLE23=Barbara Streisand - My Colouring Book
EXTD=
EXTT0=
EXTT1=
EXTT2=
EXTT3=
EXTT4=
EXTT5=
EXTT6=
EXTT7=
EXTT8=
EXTT9=
EXTT10=
EXTT11=
EXTT12=
EXTT13=
EXTT14=
EXTT15=
EXTT16=
EXTT17=
EXTT18=
EXTT19=
EXTT20=
EXTT21=
EXTT22=
EXTT23=
PLAYORDER=
